<svg width="775" height="900" viewBox="0 0 775 900" fill="none" xmlns="http://www.w3.org/2000/svg">
<g opacity="0.82">
<path d="M234.324 0H0V407.59C17.9758 397.385 26.5731 389.184 40.1176 371.56C52.0869 354.721 54.6035 344.493 56.5294 325.771V308.507V263.47C57.0561 255.663 58.2354 250.709 62.9118 240.2C76.4093 217.771 88.8228 207.997 117.618 194.412C142.157 185.454 154.492 177.853 173.235 158.382C192.864 135.134 199.317 116.996 206.971 80.3169C209.152 69.5751 210.341 63.0121 212.441 51.0425C214.292 39.7694 216.329 33.356 221.559 21.7681C224.958 13.7888 227.614 9.06842 234.324 0Z" fill="url(#paint0_linear)"/>
<path d="M211.53 51.7932C216.604 31.1104 221.425 19.7463 234.324 0H378.382C384.132 27.443 382.078 43.1013 372.912 71.3094C355.629 107.11 339.454 123.156 299.971 144.12C207.267 180.963 179.479 217.872 186.912 322.018C184.104 370.624 172.391 392.84 137.676 425.605C100.009 456.297 90.4708 480.119 78.4118 525.438L68.3824 583.236C58.5194 629.758 41.0505 650.293 0 682.319V407.59C42.8344 379.328 51.2361 359.67 55.6177 322.018V288.24C53.7775 235.527 69.9689 214.376 127.647 190.659C179.307 163.425 193.892 139.271 205.147 87.0726L208.794 68.3069L211.53 51.7932Z" fill="url(#paint1_linear)"/>
<path d="M548.882 0H671.059C675.343 61.0598 665.067 91.0626 631.853 139.616C615.416 158.943 606.049 169.205 589 186.155L540.677 239.45C484.19 309.523 470.415 357.799 479.588 460.884C477.022 501.387 465.162 512.068 440.382 526.939C334.758 569.352 305.097 621.599 286.294 747.623C273.896 831.404 238.548 861.12 152.265 900H0L1.58821 866.222C39.2713 838.538 50.4091 816.674 59.9412 775.396L67.76 727.356C85.599 597.109 123.219 562.156 209.995 526.939C272.435 507.061 295.148 486.894 305.441 330.275C325.442 223.827 383.246 153.153 548.882 0Z" fill="url(#paint2_linear)"/>
<path d="M555.265 0H374.735C376.526 82.0036 358.288 114.318 289.941 146.372C197.605 183.927 176.935 225.168 181.441 312.657C184.718 363.794 172.536 384.455 145.882 418.495C104.475 449.239 88.353 476.303 72.9412 538.199C65.5837 619.184 50.1382 637.406 0 677.815V875.229C38.3926 845.275 50.0942 823.794 59.2647 779.9L66.5588 750.626L74.7647 711.593C89.7943 610.498 123.139 571.547 226.118 532.944L236.147 528.44L246.176 523.186C287.131 495.359 298.392 460.282 308.176 380.567L311.824 344.537C331.625 241.248 360.354 198.508 422.147 131.359L443.118 109.591L483.235 68.3069L555.265 0Z" fill="url(#paint3_linear)"/>
<path d="M772.265 0H671.059C678.576 76.5886 639.705 121.117 564.382 201.918C491.289 272.474 468.468 319.307 464.088 417.348C471.717 471.196 480.743 490.508 447.676 516.43C335.248 564.993 299.874 618.109 283.559 756.63C272.096 823.878 240.784 858.743 154.088 899.249H307.265C307.264 893.244 305.282 878.807 307.265 867.723C318.759 822.874 340.753 799.399 396.618 762.635C472.939 712.828 493.47 679.92 490.529 612.51C485.81 538.19 512.439 511.179 591.735 471.393C648.831 435.635 652.528 405.811 640.059 346.038C633.6 308.037 641.334 284.212 649.176 249.208C673.928 180.747 700.123 157.905 772.265 120.851V0Z" fill="url(#paint4_linear)"/>
<path d="M772.265 375.313V122.352C686.102 161.557 656.153 197.559 637.324 288.24C635.197 314.628 636.556 329.942 642.794 358.048C651.109 411.878 642.338 436.964 593.559 469.141C518.665 508.824 485.857 534.425 483.235 600.501C492.721 676.305 458.511 707.854 391.147 755.129C317.288 803.117 295.017 834.398 298.147 900H478.677C543.654 866.882 546.159 820.72 533.383 724.354C538.175 659.589 561.64 638.703 625.471 617.765C680.688 588.348 697.708 556.63 703.883 473.645C714.022 418.144 728.111 395.693 772.265 375.313Z" fill="url(#paint5_linear)"/>
<path d="M775 899.249H481.412C535.637 871.195 539.287 833.808 530.647 750.072C525.929 673.676 541.12 645.719 600.853 622.465C669.06 596.952 695.502 568.178 702.971 481.902C714.49 410.994 732.159 391.201 775 376.063V899.249Z" fill="url(#paint6_linear)"/>
</g>
<defs>
<linearGradient id="paint0_linear" x1="0" y1="0" x2="22.9143" y2="338.514" gradientUnits="userSpaceOnUse">
<stop stop-color="#FC507B"/>
<stop offset="0.200516" stop-color="#FC6168"/>
<stop offset="0.511834" stop-color="#FC7A4C"/>
<stop offset="1" stop-color="#FCAE2A"/>
</linearGradient>
<linearGradient id="paint1_linear" x1="232.5" y1="1.6318e-08" x2="276.472" y2="643.953" gradientUnits="userSpaceOnUse">
<stop stop-color="#D01DBF"/>
<stop offset="0.100723" stop-color="#FC26EB"/>
<stop offset="0.288003" stop-color="#FB21CF"/>
<stop offset="0.54768" stop-color="#E61BB1"/>
<stop offset="0.807721" stop-color="#F1199D"/>
<stop offset="1" stop-color="#FB1896"/>
</linearGradient>
<linearGradient id="paint2_linear" x1="617.265" y1="1.2238e-05" x2="186.066" y2="969.816" gradientUnits="userSpaceOnUse">
<stop stop-color="#C41AB0"/>
<stop offset="0.139025" stop-color="#A518AA"/>
<stop offset="0.303387" stop-color="#81149D"/>
<stop offset="0.473281" stop-color="#7B149E"/>
<stop offset="0.629579" stop-color="#9524D6"/>
<stop offset="0.816453" stop-color="#8828EA"/>
<stop offset="1" stop-color="#772DF7"/>
</linearGradient>
<linearGradient id="paint3_linear" x1="485.059" y1="-26.2719" x2="88.9644" y2="898.907" gradientUnits="userSpaceOnUse">
<stop stop-color="#FC1A7A"/>
<stop offset="0.190252" stop-color="#FA197C"/>
<stop offset="0.413274" stop-color="#E31993"/>
<stop offset="0.665044" stop-color="#D01AAA"/>
<stop offset="0.849368" stop-color="#B118A8"/>
<stop offset="1" stop-color="#AC1DCB"/>
</linearGradient>
<linearGradient id="paint4_linear" x1="810.559" y1="11.2594" x2="365.238" y2="1010.5" gradientUnits="userSpaceOnUse">
<stop stop-color="#8B25FB"/>
<stop offset="0.243094" stop-color="#7B3BF9"/>
<stop offset="0.441989" stop-color="#6F57F8"/>
<stop offset="0.59116" stop-color="#606FEA"/>
<stop offset="0.823204" stop-color="#57ABFC"/>
<stop offset="1" stop-color="#1B94FC"/>
</linearGradient>
<linearGradient id="paint5_linear" x1="677.441" y1="337.782" x2="498.41" y2="941.849" gradientUnits="userSpaceOnUse">
<stop stop-color="#36DBFD"/>
<stop offset="0.155356" stop-color="#2AAEF8"/>
<stop offset="0.388067" stop-color="#20A7FC"/>
<stop offset="0.574586" stop-color="#526EFB"/>
<stop offset="0.769485" stop-color="#526EFB"/>
<stop offset="1" stop-color="#4576FB"/>
</linearGradient>
<linearGradient id="paint6_linear" x1="775" y1="386.572" x2="673.791" y2="908.096" gradientUnits="userSpaceOnUse">
<stop stop-color="#A6FEB2"/>
<stop offset="0.360643" stop-color="#74EDCA"/>
<stop offset="0.633719" stop-color="#41DCE3"/>
<stop offset="0.811681" stop-color="#36D8E8"/>
<stop offset="1" stop-color="#23CBFB"/>
</linearGradient>
</defs>
</svg>
