<svg width="56" height="55" viewBox="0 0 56 55" fill="none" xmlns="http://www.w3.org/2000/svg">
<path d="M16.5092 27.9912H8.80187C3.92208 27.9912 0 24.0236 0 19.1894V11.482C0 6.60225 3.96768 2.68018 8.80187 2.68018H16.4636C21.3434 2.68018 25.2655 6.64786 25.2655 11.482V19.1438C25.3111 24.0236 21.3434 27.9912 16.5092 27.9912ZM8.80187 7.24073C6.47599 7.24073 4.56055 9.15616 4.56055 11.482V19.1438C4.56055 21.4696 6.47599 23.3851 8.80187 23.3851H16.4636C18.7895 23.3851 20.7049 21.4696 20.7049 19.1438V11.482C20.7049 9.15616 18.7895 7.24073 16.4636 7.24073H8.80187ZM16.5092 54.9897H8.80187C3.92208 54.9897 0 51.022 0 46.1878V38.5261C0 33.6463 3.96768 29.7242 8.80187 29.7242H16.4636C21.3434 29.7242 25.2655 33.6919 25.2655 38.5261V46.1878C25.3111 51.022 21.3434 54.9897 16.5092 54.9897ZM8.80187 34.2392C6.47599 34.2392 4.56055 36.1546 4.56055 38.4805V46.1422C4.56055 48.4681 6.47599 50.3835 8.80187 50.3835H16.4636C18.7895 50.3835 20.7049 48.4681 20.7049 46.1422V38.4805C20.7049 36.1546 18.7895 34.2392 16.4636 34.2392H8.80187ZM43.6901 54.9897H36.0284C31.1486 54.9897 27.2265 51.022 27.2265 46.1878V38.5261C27.2265 33.6463 31.1942 29.7242 36.0284 29.7242H43.6901C48.5699 29.7242 52.492 33.6919 52.492 38.5261V46.1878C52.492 51.022 48.5243 54.9897 43.6901 54.9897ZM35.9828 34.2392C33.6569 34.2392 31.7415 36.1546 31.7415 38.4805V46.1422C31.7415 48.4681 33.6569 50.3835 35.9828 50.3835H43.6445C45.9704 50.3835 47.8858 48.4681 47.8858 46.1422V38.4805C47.8858 36.1546 45.9704 34.2392 43.6445 34.2392H35.9828Z" fill="black" fill-opacity="0.96"/>
<path d="M41.4296 29.1762C39.1358 29.1762 36.7951 28.2868 35.0162 26.5079L29.4455 20.9839C25.9345 17.4729 25.9345 11.715 29.4455 8.20398L35.0162 2.63323C38.5272 -0.877744 44.2852 -0.877744 47.7962 2.63323L53.3669 8.20398C56.8779 11.715 56.8779 17.4729 53.3669 20.9839L47.7962 26.5547C46.0641 28.3336 43.7234 29.1762 41.4296 29.1762ZM41.4296 4.64619C40.3061 4.64619 39.1826 5.06751 38.3399 5.91014L32.7692 11.4809C31.0839 13.1662 31.0839 15.9281 32.7692 17.6602L38.3399 23.2309C40.0252 24.9162 42.7872 24.9162 44.5192 23.2309L50.09 17.6602C51.7752 15.9749 51.7752 13.213 50.09 11.4809L44.5192 5.91014C43.6766 5.06751 42.5531 4.64619 41.4296 4.64619Z" fill="black" fill-opacity="0.96"/>
</svg>
