<svg width="56" height="55" viewBox="0 0 56 55" fill="none" xmlns="http://www.w3.org/2000/svg">
<path d="M16.5092 27.991H8.80187C3.92208 27.991 0 24.0233 0 19.1891V11.4818C0 6.60201 3.96768 2.67993 8.80187 2.67993H16.4636C21.3434 2.67993 25.2655 6.64761 25.2655 11.4818V19.1435C25.3111 24.0233 21.3434 27.991 16.5092 27.991ZM8.80187 7.24048C6.47599 7.24048 4.56055 9.15591 4.56055 11.4818V19.1435C4.56055 21.4694 6.47599 23.3848 8.80187 23.3848H16.4636C18.7895 23.3848 20.7049 21.4694 20.7049 19.1435V11.4818C20.7049 9.15591 18.7895 7.24048 16.4636 7.24048H8.80187ZM16.5092 54.9895H8.80187C3.92208 54.9895 0 51.0218 0 46.1876V38.5259C0 33.6461 3.96768 29.724 8.80187 29.724H16.4636C21.3434 29.724 25.2655 33.6917 25.2655 38.5259V46.1876C25.3111 51.0218 21.3434 54.9895 16.5092 54.9895ZM8.80187 34.2389C6.47599 34.2389 4.56055 36.1544 4.56055 38.4803V46.142C4.56055 48.4679 6.47599 50.3833 8.80187 50.3833H16.4636C18.7895 50.3833 20.7049 48.4679 20.7049 46.142V38.4803C20.7049 36.1544 18.7895 34.2389 16.4636 34.2389H8.80187ZM43.6901 54.9895H36.0284C31.1486 54.9895 27.2265 51.0218 27.2265 46.1876V38.5259C27.2265 33.6461 31.1942 29.724 36.0284 29.724H43.6901C48.5699 29.724 52.492 33.6917 52.492 38.5259V46.1876C52.492 51.0218 48.5243 54.9895 43.6901 54.9895ZM35.9828 34.2389C33.6569 34.2389 31.7415 36.1544 31.7415 38.4803V46.142C31.7415 48.4679 33.6569 50.3833 35.9828 50.3833H43.6445C45.9704 50.3833 47.8858 48.4679 47.8858 46.142V38.4803C47.8858 36.1544 45.9704 34.2389 43.6445 34.2389H35.9828Z" fill="#FCFCFC" fill-opacity="0.96"/>
<path d="M41.4295 29.1762C39.1356 29.1762 36.795 28.2868 35.0161 26.5079L29.4454 20.9839C25.9344 17.4729 25.9344 11.715 29.4454 8.20398L35.0161 2.63323C38.5271 -0.877744 44.2851 -0.877744 47.796 2.63323L53.3668 8.20398C56.8777 11.715 56.8777 17.4729 53.3668 20.9839L47.796 26.5547C46.064 28.3336 43.7233 29.1762 41.4295 29.1762ZM41.4295 4.64619C40.306 4.64619 39.1825 5.06751 38.3398 5.91014L32.7691 11.4809C31.0838 13.1662 31.0838 15.9281 32.7691 17.6602L38.3398 23.2309C40.0251 24.9162 42.787 24.9162 44.5191 23.2309L50.0899 17.6602C51.7751 15.9749 51.7751 13.213 50.0899 11.4809L44.5191 5.91014C43.6765 5.06751 42.553 4.64619 41.4295 4.64619Z" fill="#FCFCFC" fill-opacity="0.96"/>
</svg>
