<svg width="14" height="26" viewBox="0 0 14 26" fill="none" xmlns="http://www.w3.org/2000/svg">
<path d="M13.4439 0.00537628L10.0932 0C6.32869 0 3.89592 2.49594 3.89592 6.35906V9.29101H0.526876C0.23575 9.29101 0 9.52703 0 9.81815V14.0662C0 14.3573 0.236019 14.5931 0.526876 14.5931H3.89592V25.3123C3.89592 25.6034 4.13167 25.8392 4.4228 25.8392H8.81845C9.10957 25.8392 9.34532 25.6032 9.34532 25.3123V14.5931H13.2845C13.5757 14.5931 13.8114 14.3573 13.8114 14.0662L13.813 9.81815C13.813 9.67837 13.7574 9.5445 13.6587 9.44558C13.5601 9.34666 13.4257 9.29101 13.2859 9.29101H9.34532V6.80556C9.34532 5.61095 9.63 5.00451 11.1862 5.00451L13.4434 5.0037C13.7343 5.0037 13.97 4.76768 13.97 4.47682V0.532251C13.97 0.241664 13.7345 0.0059139 13.4439 0.00537628Z" fill="black" fill-opacity="0.6"/>
</svg>
