<svg width="189" height="344" viewBox="0 0 189 344" fill="none" xmlns="http://www.w3.org/2000/svg">
<path fill-rule="evenodd" clip-rule="evenodd" d="M80.64 163.702L110.931 259.68L132.164 330.421H144.27L115.084 163.702L80.64 163.702Z" fill="#1F28CF"/>
<path fill-rule="evenodd" clip-rule="evenodd" d="M73.1535 163.702C72.8242 196.634 73.0623 240.972 72.2951 243.024C71.5279 245.077 24.57 289.803 24.57 289.803L30.8101 302.509C30.8101 302.509 86.56 259.459 89.4102 253.723C92.2605 247.987 106.58 195.207 114.03 163.702H73.1535Z" fill="#2B44FF"/>
<path fill-rule="evenodd" clip-rule="evenodd" d="M13.5917 298.353L22.8474 291.811L31.8009 302.875C33.7544 314.278 41.2812 329.143 41.2812 329.143L39.5994 330.49L23.3978 310.47L18.6961 302.948L17.8552 303.621L13.5917 298.353Z" fill="#191847"/>
<path fill-rule="evenodd" clip-rule="evenodd" d="M131.04 344L131.67 328.158L144.9 328.158C154.31 336.079 169.47 340.982 169.47 340.982V344H145.53L137.34 342.491V344H131.04Z" fill="#191847"/>
<path fill-rule="evenodd" clip-rule="evenodd" d="M105.799 56.7633C109.879 59.7078 113.887 61.1304 115.769 60.5496C120.487 59.0933 120.921 38.4247 117.27 30.2765C113.62 22.1283 94.8517 18.5768 93.9058 34.721C93.5774 40.3241 95.5422 45.3246 98.4452 49.4049L93.24 78.4562H108.36L105.799 56.7633Z" fill="#B28B67"/>
<path fill-rule="evenodd" clip-rule="evenodd" d="M123.969 18.9808C123.656 17.6629 122.813 16.5346 121.678 16.1998C121.403 16.1186 121.119 16.0858 120.836 16.0995C120.734 16.1043 120.706 16.1394 120.658 16.0544C120.623 15.9913 120.622 15.8372 120.608 15.7631C120.563 15.5326 120.506 15.305 120.437 15.0833C120.199 14.3272 119.8 13.658 119.319 13.0942C118.419 12.0396 117.203 11.3117 115.94 11.18C115.249 11.108 114.562 11.2425 113.909 11.5118C113.57 11.6512 113.242 11.8248 112.923 12.0167C112.826 12.0745 112.514 12.3574 112.418 12.3391C112.311 12.3189 112.097 12.0015 112.01 11.9219C110.938 10.9371 109.614 10.5499 108.279 10.5618C106.772 10.5751 105.321 10.6653 104.064 11.7653C103.798 11.9982 103.545 12.2532 103.304 12.5217C103.177 12.663 103.054 12.8097 102.936 12.9624C102.865 13.0545 102.796 13.1488 102.73 13.2455C102.617 13.4098 102.636 13.4637 102.478 13.3491C101.873 12.9091 101.172 12.7033 100.466 12.8072C100.047 12.8689 99.639 13.0196 99.2518 13.218C99.1199 13.2855 98.8147 13.5549 98.6741 13.5575C98.5347 13.5601 98.2338 13.3104 98.0902 13.2469C97.3145 12.904 96.4784 12.8195 95.6631 12.9779C94.8221 13.1414 93.996 13.5432 93.2834 14.0984C92.9407 14.3655 92.6417 14.6614 92.4015 15.0586C92.2978 15.23 92.2041 15.4114 92.0865 15.5704C92.0177 15.6635 91.8815 15.759 91.8445 15.8768C91.8666 15.8063 90.9248 15.3715 90.8359 15.3437C90.3624 15.1956 89.8803 15.2256 89.4166 15.4083C88.5448 15.7519 87.795 16.5224 87.1787 17.3123C86.8622 17.7181 86.5852 18.1666 86.3501 18.6444C86.2374 18.8733 86.1344 19.1087 86.0401 19.3491C85.9944 19.4656 85.9642 19.6113 85.904 19.7163C85.8264 19.8515 85.7743 19.854 85.6338 19.913C84.9202 20.2123 84.2698 20.719 83.7744 21.4036C83.2734 22.0962 82.9483 22.9492 82.812 23.8475C82.804 23.9004 82.7992 24.1196 82.7733 24.1483C82.7379 24.1877 82.5944 24.1703 82.5401 24.1779C82.3521 24.2043 82.1655 24.2436 81.9813 24.2958C81.6419 24.392 81.3114 24.5336 80.9989 24.7188C79.7804 25.4407 78.9091 26.794 78.4827 28.3168C78.0352 29.915 78.0431 31.7459 78.5779 33.3142C78.6643 33.5675 78.7671 33.8134 78.8878 34.046C78.962 34.1887 78.9859 34.1891 78.9378 34.3389C78.8841 34.5056 78.7861 34.6675 78.7224 34.8304C78.5145 35.3618 78.3692 35.9254 78.2774 36.5011C78.1268 37.4454 78.0522 38.4378 78.2007 39.3893C78.2697 39.8311 78.3899 40.263 78.5733 40.6566C78.6668 40.8572 78.7762 41.0475 78.8997 41.2235C78.9638 41.3149 79.0319 41.4022 79.1031 41.4858C79.1439 41.5336 79.1973 41.5754 79.2319 41.6288C79.3165 41.7589 79.3343 41.6519 79.2906 41.8429C79.2297 42.11 79.0915 42.3735 79.0068 42.6334C78.9196 42.9012 78.8408 43.1727 78.7687 43.4469C78.6227 44.0021 78.4992 44.5673 78.422 45.1422C78.2737 46.2461 78.2998 47.4223 78.7358 48.4353C78.9222 48.8687 79.1897 49.2488 79.5141 49.5445C79.6729 49.6892 79.8448 49.8139 80.0253 49.9163C80.1179 49.969 80.2363 49.9916 80.2786 50.099C80.3241 50.2144 80.2565 50.4436 80.2411 50.5727C80.1071 51.6954 80.0398 52.8742 80.3185 53.9744C80.5752 54.9878 81.1404 55.8825 81.8743 56.4749C83.2978 57.624 85.2167 57.5592 86.7125 56.6393C87.1024 56.3995 87.4672 56.1017 87.7926 55.7505C88.6212 57.0862 90.3262 57.0439 91.5372 56.6633C93.046 56.1892 94.2566 54.933 94.9541 53.2824C95.9079 54.6727 97.9095 54.2216 98.5709 52.7134C98.7328 52.3442 98.8288 51.9374 98.8761 51.5257C98.901 51.3092 98.8851 51.0908 98.9038 50.8761C98.9276 50.6024 99.0803 50.3365 99.1681 50.0717C99.339 49.5565 99.4451 49.0242 99.4496 48.4685C99.452 48.1783 99.4213 47.8955 99.3983 47.6077C99.3776 47.3486 99.4376 47.1072 99.4717 46.8514C99.0847 46.9277 98.6133 46.8028 98.2487 46.6684C97.891 46.5366 97.5559 46.1894 97.3034 45.8722C96.7171 45.1358 96.3589 44.1705 96.114 43.2097C95.5763 41.101 95.7967 38.5711 97.568 37.4138C98.3931 36.8747 100.865 36.8764 101.848 37.1429C102.881 37.423 104.053 40.1534 104.11 40.41C104.146 40.5688 104.128 40.7654 104.25 40.8712C104.518 41.1039 104.959 40.7001 105.157 40.5008C105.498 40.1568 105.741 39.6992 105.951 39.2352C106.41 38.2246 106.78 37.1408 107.041 36.0343C107.243 35.1813 107.372 34.3017 107.635 33.4704C107.897 32.6433 108.31 31.904 108.952 31.4354C109.65 30.9257 110.451 30.6572 111.218 30.3369C111.978 30.0194 112.725 29.6314 113.314 28.9578C113.444 28.8096 113.57 28.6522 113.674 28.4778C113.756 28.3402 113.838 28.0766 113.963 27.9893C114.158 27.8535 114.443 28.2067 114.611 28.3349C115.443 28.9675 116.137 29.8499 116.697 30.8138C117.253 31.7724 117.71 32.6948 118.081 33.7653C118.357 34.5592 118.529 35.5759 119.013 36.2266C119.229 36.5171 120.836 36.6928 121.356 36.4392C121.877 36.1856 122.46 35.527 122.635 35.1142C122.814 34.6918 122.856 34.2277 122.78 33.7653C122.735 33.4932 122.643 33.239 122.593 32.9718C122.551 32.7473 122.512 32.5351 122.421 32.3295C122.248 31.9398 121.953 31.6597 121.596 31.5426C121.967 31.1332 122.274 30.6435 122.487 30.096C122.708 29.5273 122.895 28.8356 122.948 28.2114C122.991 27.7044 122.925 27.1791 122.693 26.7434C122.45 26.2863 122.019 25.9881 121.646 25.703C122.216 25.1696 122.703 24.521 123.103 23.8028C123.882 22.4062 124.364 20.6458 123.969 18.9808Z" fill="#191847"/>
<path fill-rule="evenodd" clip-rule="evenodd" d="M143.229 85.766L121.362 100.107L129.437 110.486L145.326 93.065C153.697 90.3027 157.524 88.282 156.81 87.0029C156.207 85.9243 155.235 85.9618 154.34 85.9963C153.643 86.0231 152.992 86.0482 152.599 85.5425C151.7 84.3877 153.415 80.3499 155.178 76.6015C156.942 72.853 155.056 73.1794 153.978 73.7185C150.448 76.5794 146.865 80.5952 143.229 85.766ZM165.215 105.889L155.61 112.207L156.157 123.75C156.157 123.75 162.378 118.373 167.73 116.586C174.555 114.308 177.316 112.568 180.65 107.48C182.434 104.757 183.949 99.2848 182.25 97.5026C181.599 96.8189 179.172 98.4341 176.695 100.082C174.807 101.338 172.891 102.613 171.711 102.904C170.121 103.296 170.307 100.829 170.456 98.8581C170.563 97.4437 170.65 96.2845 170.049 96.6196C167.237 96.6774 165.215 105.889 165.215 105.889Z" fill="#997659"/>
<path fill-rule="evenodd" clip-rule="evenodd" d="M110.712 96.9126C118.372 96.8157 128.585 94.8786 139.484 86.5951L143.763 98.024C136.246 106.957 125.676 114.297 116.434 113.986C109.151 113.741 105.428 103.192 110.712 96.9126Z" fill="#2026A2"/>
<path fill-rule="evenodd" clip-rule="evenodd" d="M90.0552 175.213C82.7737 174.076 76.0829 173.031 72.1179 173.966C67.6692 156.666 71.3633 145.773 74.7734 135.718C76.8287 129.657 78.7809 123.901 78.785 117.229C78.7972 97.8003 91.8253 67.8948 93.7422 67.8948H94.2923H109.483H111.223C112.004 79.9177 115.34 92.9351 118.697 106.036C119.481 109.096 120.266 112.16 121.02 115.217C133.724 118.67 161.933 106.65 161.933 106.65C161.933 106.65 169.054 124.292 168.517 131.804C152.097 142.074 138.025 146.653 126.431 146.956C126.799 155.193 125.962 163.032 123.149 170.194C119.38 179.791 103.683 177.34 90.0552 175.213Z" fill="#1F28CF"/>
</svg>
