<svg width="23" height="23" viewBox="0 0 23 23" fill="none" xmlns="http://www.w3.org/2000/svg">
<path d="M2.95714 0C1.33594 0 0 1.33594 0 2.95715V20.0429C0 21.6641 1.33594 23 2.95714 23H20.0429C21.6641 23 23 21.6641 23 20.0429V2.95715C23 1.33594 21.6641 0 20.0429 0H2.95714ZM2.95714 1.97143H20.0429C20.606 1.97143 21.0286 2.39401 21.0286 2.95715V10.5143H16.9933C16.5226 7.90968 14.2354 5.91429 11.5 5.91429C8.76464 5.91429 6.47742 7.90968 6.00668 10.5143H1.97143V2.95715C1.97143 2.39401 2.394 1.97143 2.95714 1.97143ZM18.0714 3.94286C17.3455 3.94286 16.7571 4.53127 16.7571 5.25715C16.7571 5.983 17.3455 6.57144 18.0714 6.57144C18.7973 6.57144 19.3857 5.983 19.3857 5.25715C19.3857 4.53127 18.7973 3.94286 18.0714 3.94286ZM11.5 7.88572C13.5078 7.88572 15.1143 9.49224 15.1143 11.5C15.1143 13.5078 13.5078 15.1143 11.5 15.1143C9.4922 15.1143 7.88571 13.5078 7.88571 11.5C7.88571 9.49224 9.4922 7.88572 11.5 7.88572ZM1.97143 12.4857H6.00668C6.47338 15.0952 8.76116 17.0858 11.5 17.0858C14.2388 17.0858 16.5266 15.0952 16.9933 12.4857H21.0286V20.0429C21.0286 20.606 20.606 21.0286 20.0429 21.0286H2.95714C2.394 21.0286 1.97143 20.606 1.97143 20.0429V12.4857Z" fill="black" fill-opacity="0.6"/>
</svg>
