<svg width="39" height="62" viewBox="0 0 39 62" fill="none" xmlns="http://www.w3.org/2000/svg">
<g filter="url(#filter0_d)">
<path d="M2 26.994C2 25.9701 2.36457 25.0393 3.09371 24.2946L26.7907 1.02391C27.5198 0.372331 28.4312 4.32381e-07 29.3426 4.32381e-07C30.3452 4.32381e-07 31.2566 0.372331 31.9858 1.11699C33.3529 2.60632 33.3529 4.9334 31.8946 6.42272L10.9319 26.994L31.8946 47.5654C33.3529 48.9616 33.3529 51.3818 31.9858 52.8711C30.6186 54.3604 28.2489 54.3604 26.7907 52.9642L3.09371 29.6934C2.36457 28.9488 2 28.018 2 26.994Z" fill="#FFFEFE"/>
</g>
<defs>
<filter id="filter0_d" x="0" y="0" width="39" height="62" filterUnits="userSpaceOnUse" color-interpolation-filters="sRGB">
<feFlood flood-opacity="0" result="BackgroundImageFix"/>
<feColorMatrix in="SourceAlpha" type="matrix" values="0 0 0 0 0 0 0 0 0 0 0 0 0 0 0 0 0 0 127 0"/>
<feOffset dx="2" dy="4"/>
<feGaussianBlur stdDeviation="2"/>
<feColorMatrix type="matrix" values="0 0 0 0 0 0 0 0 0 0 0 0 0 0 0 0 0 0 0.38 0"/>
<feBlend mode="normal" in2="BackgroundImageFix" result="effect1_dropShadow"/>
<feBlend mode="normal" in="SourceGraphic" in2="effect1_dropShadow" result="shape"/>
</filter>
</defs>
</svg>
