<svg width="31" height="54" viewBox="0 0 31 54" fill="none" xmlns="http://www.w3.org/2000/svg">
<path d="M-8.44464e-07 26.994C-8.44464e-07 25.9701 0.364569 25.0393 1.09371 24.2946L24.7907 1.02391C25.5198 0.372331 26.4312 4.32381e-07 27.3426 4.32381e-07C28.3452 4.32381e-07 29.2566 0.372331 29.9858 1.11699C31.3529 2.60632 31.3529 4.9334 29.8946 6.42272L8.93193 26.994L29.8946 47.5654C31.3529 48.9616 31.3529 51.3818 29.9858 52.8711C28.6186 54.3604 26.2489 54.3604 24.7907 52.9642L1.09371 29.6934C0.364569 28.9488 -8.44464e-07 28.018 -8.44464e-07 26.994Z" fill="#FFFEFE"/>
</svg>
