<svg width="75" height="75" viewBox="0 0 75 75" fill="none" xmlns="http://www.w3.org/2000/svg">
<path d="M3.00195 54H0.00195312V75H3.00195V54Z" fill="black" fill-opacity="0.96"/>
<path d="M39 54H36V75H39V54Z" fill="black" fill-opacity="0.96"/>
<path d="M30 63H9V66H30V63Z" fill="black" fill-opacity="0.96"/>
<path d="M48 45H27V48H48V45Z" fill="black" fill-opacity="0.96"/>
<path d="M12 45H0V48H12V45Z" fill="black" fill-opacity="0.96"/>
<path d="M66 63H45V66H66V63Z" fill="black" fill-opacity="0.96"/>
<path d="M3.00195 18H0.00195312V39H3.00195V18Z" fill="black" fill-opacity="0.96"/>
<path d="M39 18H36V39H39V18Z" fill="black" fill-opacity="0.96"/>
<path d="M75 18H72V39H75V18Z" fill="black" fill-opacity="0.96"/>
<path d="M21 36H18V57H21V36Z" fill="black" fill-opacity="0.96"/>
<path d="M48 9H27V12H48V9Z" fill="black" fill-opacity="0.96"/>
<path d="M12 9H0V12H12V9Z" fill="black" fill-opacity="0.96"/>
<path d="M21 0H18V21H21V0Z" fill="black" fill-opacity="0.96"/>
<path d="M75 45H63V48H75V45Z" fill="black" fill-opacity="0.96"/>
<path d="M57 36H54V57H57V36Z" fill="black" fill-opacity="0.96"/>
<path d="M75 54H72V75H75V54Z" fill="black" fill-opacity="0.96"/>
<path d="M75 9H63V12H75V9Z" fill="black" fill-opacity="0.96"/>
<path d="M57 0H54V21H57V0Z" fill="black" fill-opacity="0.96"/>
<path d="M30 27H9V30H30V27Z" fill="black" fill-opacity="0.96"/>
<path d="M66 27H45V30H66V27Z" fill="black" fill-opacity="0.96"/>
</svg>
