<svg width="25" height="21" viewBox="0 0 25 21" fill="none" xmlns="http://www.w3.org/2000/svg">
<path d="M19.8915 3.37207C21.0756 3.37207 18.8082 2.43991 19.6899 3.29649C19.7403 3.34688 18.9593 4.0775 19.0097 4.0775C19.0349 4.0775 19.8663 3.37207 19.8915 3.37207C20.2884 3.28136 12.1132 4.00482 8.68032 7.61633C4.48615 12.0287 4.85473 19.4884 5.22879 19.2944C5.2417 19.2815 13.2536 20.4555 17.6763 16.1201C21.8837 11.9957 22.5123 2.35142 22.5368 2.33913C22.1841 3.37207 21.5543 4.15308 20.6473 4.73253C21.0756 4.68214 21.4787 4.60656 21.8818 4.50579C22.2849 4.40501 20.5213 6.59686 20.9496 6.4205C20.7481 6.72283 22.7132 4.65695 22.4864 4.90889C22.0581 5.41276 21.5543 5.86624 21.0252 6.26934C20.9748 6.31973 20.9496 6.34492 20.9496 6.4205C20.9496 6.67244 20.9496 6.89918 20.9496 7.15112C20.9496 7.15112 20.9496 7.15112 20.9496 7.17631C20.8489 10.1744 19.8159 12.8449 17.876 15.1627C16.2888 17.0018 14.3237 18.2615 11.9555 18.8914C11.2249 19.0929 10.4691 19.2189 9.73845 19.2944C9.63768 19.2944 9.5369 19.2944 9.41093 19.2944C9.25977 19.2944 9.1338 19.2944 8.98264 19.2944C8.70551 19.2944 8.42838 19.2944 8.17644 19.2944C8.00009 19.2944 7.82373 19.2944 7.62218 19.2944C7.01754 19.2944 6.43808 19.1937 5.85863 19.0677C4.44778 18.7654 3.16291 18.2363 1.92842 17.4805C1.90323 17.4553 4.22106 18.9165 4.19587 18.8914C4.52338 18.9165 4.7446 18.8721 5.07212 18.8721C5.87831 18.8721 4.44778 17.3545 5.22879 17.1278C6.33731 16.8255 7.34505 16.3216 8.25203 15.591C6.26173 15.4146 4.90127 14.4069 4.19585 12.5677C4.44778 12.6181 4.72491 12.6181 4.97685 12.6181C5.35476 12.6181 5.75785 12.5677 6.13576 12.467C5.12801 12.2402 4.29662 11.7112 3.64159 10.905C2.98655 10.0988 5.82131 18.0016 5.82131 16.9435C6.42596 17.271 10.4496 7.05034 11.1298 7.05034C10.1977 6.37012 12.2074 9.60663 11.9555 8.49811C11.7036 7.38959 12.8845 9.11622 13.4387 8.10848C13.5143 8.18406 3.44004 2.94378 3.49043 3.01936C5.32956 5.16082 7.62218 6.52128 10.3935 7.12593C10.9981 7.25189 11.5776 7.32747 12.1822 7.37786C12.2074 7.37786 12.2326 7.37786 12.2578 7.37786H12.283C12.3334 7.37786 12.3334 7.35267 12.3334 7.27709C12.2578 6.89918 12.2326 6.49608 12.2578 6.11818C12.3334 4.88369 17.5426 6.79841 18.4748 5.99221C19.155 5.38756 15.2307 2.11239 16.1376 2.03681C16.1523 2.39491 15.4615 1.45627 15.4748 1.75389C15.7653 8.28569 19.7228 3.37207 19.8915 3.37207ZM16.5911 0.5C16.3644 0.5 16.1628 0.5 15.9361 0.525194C14.7268 0.651162 13.6435 1.12984 12.7113 1.93604C11.5776 2.94378 10.8974 4.17827 10.721 5.66469C10.6958 5.66469 10.6958 5.66469 10.6706 5.66469C8.22683 5.13563 6.23653 3.95153 4.59895 2.03681L4.49817 1.91084L4.44778 1.83526C4.17065 1.50775 3.74236 1.3062 3.28888 1.3062C3.23849 1.3062 3.1881 1.3062 3.13771 1.3062C2.63384 1.35658 2.20555 1.63371 1.97881 2.06201C1.223 3.39727 1.02145 4.8333 1.34897 6.29454C1.39935 6.54647 1.47493 6.79841 1.57571 7.05034C1.32377 7.32747 1.17261 7.70538 1.17261 8.08328C1.17261 9.49413 1.6009 10.7538 2.48268 11.8119C2.58345 11.9379 2.65904 12.0387 2.75981 12.1395C2.68423 12.4418 2.70942 12.7441 2.8102 13.0464C3.23849 14.1298 3.84314 15.0115 4.62414 15.6666C4.04469 15.8177 3.44004 15.8933 2.83539 15.8933C2.58345 15.8933 2.30632 15.8681 2.02919 15.8429C1.97881 15.8429 1.92842 15.8429 1.87803 15.8429C1.32377 15.8429 0.794705 16.1452 0.542769 16.6743C0.265639 17.2286 0.341219 17.8836 0.744318 18.3623C0.870286 18.5134 0.996254 18.6142 1.17261 18.715C2.55826 19.5716 4.01949 20.1762 5.5815 20.5037C6.21134 20.6297 6.91676 20.7557 7.64738 20.7809C7.82373 20.7809 8.02528 20.7809 8.20164 20.7809H8.68032H9.00783C9.08342 20.7809 9.1338 20.7809 9.20938 20.7809C9.28496 20.7809 9.36055 20.7809 9.46132 20.7809C9.63768 20.7809 9.76364 20.7809 9.91481 20.7557C10.7714 20.6801 11.6028 20.5289 12.409 20.3022C15.0291 19.6472 17.2714 18.2111 19.0097 16.1201C21.1512 13.6007 22.3101 10.653 22.4361 7.35267C22.4612 7.25189 22.4612 7.15112 22.4361 7.05034C22.8643 6.69763 23.2422 6.29454 23.6202 5.89144C23.8973 5.56392 24.124 5.2616 24.3508 4.93408C24.5271 4.68214 24.6279 4.37982 24.6279 4.0775C24.6279 3.54843 24.376 3.09494 23.9729 2.81781C24.1744 2.21317 23.9981 1.55813 23.4942 1.18023C23.2171 0.953485 22.8643 0.827517 22.5368 0.827517C22.2849 0.827517 22.033 0.903098 21.8062 1.02907L21.7558 1.05426C21.6802 1.10465 21.5543 1.15503 21.5039 1.18023C21.0504 1.40697 20.6221 1.60852 20.1686 1.73449C19.1357 0.928292 17.9264 0.5 16.5911 0.5Z" fill="white"/>
</svg>
