<svg width="25" height="21" viewBox="0 0 25 21" fill="none" xmlns="http://www.w3.org/2000/svg">
<path d="M19.8915 3.37207C21.0756 3.37207 18.8082 2.43991 19.69 3.29649C19.7404 3.34688 18.9594 4.0775 19.0097 4.0775C19.0349 4.0775 19.8663 3.37207 19.8915 3.37207C20.2884 3.28136 12.1133 4.00482 8.68035 7.61633C4.48618 12.0287 4.85476 19.4884 5.22882 19.2944C5.24173 19.2815 13.2536 20.4555 17.6764 16.1201C21.8837 11.9957 22.5123 2.35142 22.5369 2.33913C22.1841 3.37207 21.5543 4.15308 20.6473 4.73253C21.0756 4.68214 21.4787 4.60656 21.8818 4.50579C22.2849 4.40501 20.5214 6.59686 20.9497 6.4205C20.7481 6.72283 22.7132 4.65695 22.4865 4.90889C22.0582 5.41276 21.5543 5.86624 21.0252 6.26934C20.9749 6.31973 20.9497 6.34492 20.9497 6.4205C20.9497 6.67244 20.9497 6.89918 20.9497 7.15112C20.9497 7.15112 20.9497 7.15112 20.9497 7.17631C20.8489 10.1744 19.8159 12.8449 17.876 15.1627C16.2888 17.0018 14.3237 18.2615 11.9555 18.8914C11.2249 19.0929 10.4691 19.2189 9.73848 19.2944C9.63771 19.2944 9.53693 19.2944 9.41096 19.2944C9.2598 19.2944 9.13383 19.2944 8.98267 19.2944C8.70554 19.2944 8.42841 19.2944 8.17648 19.2944C8.00012 19.2944 7.82376 19.2944 7.62221 19.2944C7.01757 19.2944 6.43811 19.1937 5.85866 19.0677C4.44781 18.7654 3.16294 18.2363 1.92845 17.4805C1.90326 17.4553 4.22109 18.9165 4.1959 18.8914C4.52342 18.9165 4.74463 18.8721 5.07215 18.8721C5.87834 18.8721 4.44782 17.3545 5.22882 17.1278C6.33734 16.8255 7.34508 16.3216 8.25206 15.591C6.26176 15.4146 4.9013 14.4069 4.19588 12.5677C4.44781 12.6181 4.72495 12.6181 4.97688 12.6181C5.35479 12.6181 5.75788 12.5677 6.13579 12.467C5.12804 12.2402 4.29665 11.7112 3.64162 10.905C2.98658 10.0988 5.82134 18.0016 5.82134 16.9435C6.42599 17.271 10.4496 7.05034 11.1299 7.05034C10.1977 6.37012 12.2075 9.60663 11.9555 8.49811C11.7036 7.38959 12.8845 9.11622 13.4388 8.10848C13.5143 8.18406 3.44007 2.94378 3.49046 3.01936C5.32959 5.16082 7.62221 6.52128 10.3935 7.12593C10.9982 7.25189 11.5776 7.32747 12.1823 7.37786C12.2075 7.37786 12.2327 7.37786 12.2578 7.37786H12.283C12.3334 7.37786 12.3334 7.35267 12.3334 7.27709C12.2578 6.89918 12.2327 6.49608 12.2578 6.11818C12.3334 4.88369 17.5426 6.79841 18.4748 5.99221C19.155 5.38756 15.2307 2.11239 16.1377 2.03681C16.1524 2.39491 15.4616 1.45627 15.4748 1.75389C15.7653 8.28569 19.7229 3.37207 19.8915 3.37207ZM16.5912 0.5C16.3644 0.5 16.1629 0.5 15.9361 0.525194C14.7268 0.651162 13.6435 1.12984 12.7113 1.93604C11.5776 2.94378 10.8974 4.17827 10.721 5.66469C10.6958 5.66469 10.6958 5.66469 10.6706 5.66469C8.22686 5.13563 6.23656 3.95153 4.59898 2.03681L4.4982 1.91084L4.44781 1.83526C4.17068 1.50775 3.74239 1.3062 3.28891 1.3062C3.23852 1.3062 3.18813 1.3062 3.13774 1.3062C2.63387 1.35658 2.20558 1.63371 1.97884 2.06201C1.22303 3.39727 1.02148 4.8333 1.349 6.29454C1.39938 6.54647 1.47496 6.79841 1.57574 7.05034C1.3238 7.32747 1.17264 7.70538 1.17264 8.08328C1.17264 9.49413 1.60093 10.7538 2.48271 11.8119C2.58348 11.9379 2.65907 12.0387 2.75984 12.1395C2.68426 12.4418 2.70945 12.7441 2.81023 13.0464C3.23852 14.1298 3.84317 15.0115 4.62417 15.6666C4.04472 15.8177 3.44007 15.8933 2.83542 15.8933C2.58348 15.8933 2.30635 15.8681 2.02922 15.8429C1.97884 15.8429 1.92845 15.8429 1.87806 15.8429C1.3238 15.8429 0.794736 16.1452 0.542799 16.6743C0.265669 17.2286 0.34125 17.8836 0.744348 18.3623C0.870317 18.5134 0.996285 18.6142 1.17264 18.715C2.55829 19.5716 4.01952 20.1762 5.58153 20.5037C6.21137 20.6297 6.91679 20.7557 7.64741 20.7809C7.82376 20.7809 8.02531 20.7809 8.20167 20.7809H8.68035H9.00786C9.08345 20.7809 9.13383 20.7809 9.20941 20.7809C9.285 20.7809 9.36058 20.7809 9.46135 20.7809C9.63771 20.7809 9.76367 20.7809 9.91484 20.7557C10.7714 20.6801 11.6028 20.5289 12.409 20.3022C15.0291 19.6472 17.2714 18.2111 19.0097 16.1201C21.1512 13.6007 22.3101 10.653 22.4361 7.35267C22.4613 7.25189 22.4613 7.15112 22.4361 7.05034C22.8644 6.69763 23.2423 6.29454 23.6202 5.89144C23.8973 5.56392 24.1241 5.2616 24.3508 4.93408C24.5272 4.68214 24.6279 4.37982 24.6279 4.0775C24.6279 3.54843 24.376 3.09494 23.9729 2.81781C24.1744 2.21317 23.9981 1.55813 23.4942 1.18023C23.2171 0.953485 22.8644 0.827517 22.5369 0.827517C22.2849 0.827517 22.033 0.903098 21.8062 1.02907L21.7559 1.05426C21.6803 1.10465 21.5543 1.15503 21.5039 1.18023C21.0504 1.40697 20.6221 1.60852 20.1687 1.73449C19.1357 0.928292 17.9264 0.5 16.5912 0.5Z" fill="black" fill-opacity="0.6"/>
</svg>
