<svg width="20" height="24" viewBox="0 0 20 24" fill="none" xmlns="http://www.w3.org/2000/svg">
<path d="M10.013 23.201C9.32274 23.1932 8.76414 22.6418 8.77171 21.9757L8.97271 4.2943L3.19975 9.7094C2.69221 10.1881 1.90778 10.1792 1.41125 9.68907C1.19402 9.47464 1.07195 9.17045 1.07573 8.83741C1.07918 8.53464 1.20847 8.20303 1.4619 7.99395L9.39192 0.54432C9.89946 0.0656063 10.6839 0.0745237 11.149 0.564295L18.9077 8.19227C19.4042 8.6824 19.3956 9.43931 18.888 9.91802C18.3805 10.3967 17.5961 10.3878 17.0995 9.89769L11.4829 4.32284L11.2819 22.0042C11.2743 22.6703 10.7033 23.2088 10.013 23.201Z" fill="white"/>
</svg>
