<svg width="75" height="62" viewBox="0 0 75 62" fill="none" xmlns="http://www.w3.org/2000/svg">
<path d="M75 10.4839C75 7.70337 73.8955 5.03676 71.9293 3.07065C69.9632 1.10455 67.2966 0 64.5161 0H10.4839C7.70338 0 5.03676 1.10455 3.07065 3.07065C1.10455 5.03676 0 7.70337 0 10.4839V50.8064C0 52.1832 0.271173 53.5465 0.798037 54.8184C1.3249 56.0904 2.09714 57.2461 3.07065 58.2197C4.04417 59.1932 5.19991 59.9654 6.47187 60.4923C7.74383 61.0191 9.10711 61.2903 10.4839 61.2903H64.5161C65.8929 61.2903 67.2562 61.0191 68.5281 60.4923C69.8001 59.9654 70.9558 59.1932 71.9293 58.2197C72.9029 57.2461 73.6751 56.0904 74.202 54.8184C74.7288 53.5465 75 52.1832 75 50.8064V10.4839ZM10.4839 4.83871H64.5161C66.0133 4.83871 67.4492 5.43347 68.5079 6.49214C69.5665 7.55081 70.1613 8.98668 70.1613 10.4839V17.7419H4.83871V10.4839C4.83871 8.98668 5.43347 7.55081 6.49214 6.49214C7.55081 5.43347 8.98668 4.83871 10.4839 4.83871ZM64.5161 56.4516H10.4839C8.98668 56.4516 7.55081 55.8568 6.49214 54.7982C5.43347 53.7395 4.83871 52.3036 4.83871 50.8064V22.5806H70.1613V50.8064C70.1613 52.3036 69.5665 53.7395 68.5079 54.7982C67.4492 55.8568 66.0133 56.4516 64.5161 56.4516Z" fill="#FCFCFC" fill-opacity="0.96"/>
<path d="M22.5807 15.3228C24.8076 15.3228 26.6129 13.5175 26.6129 11.2906C26.6129 9.0636 24.8076 7.2583 22.5807 7.2583C20.3537 7.2583 18.5484 9.0636 18.5484 11.2906C18.5484 13.5175 20.3537 15.3228 22.5807 15.3228Z" fill="#FCFCFC" fill-opacity="0.96"/>
<path d="M33.0644 15.3228C35.2914 15.3228 37.0967 13.5175 37.0967 11.2906C37.0967 9.0636 35.2914 7.2583 33.0644 7.2583C30.8375 7.2583 29.0322 9.0636 29.0322 11.2906C29.0322 13.5175 30.8375 15.3228 33.0644 15.3228Z" fill="#FCFCFC" fill-opacity="0.96"/>
<path d="M12.0966 15.3228C14.3236 15.3228 16.1289 13.5175 16.1289 11.2906C16.1289 9.0636 14.3236 7.2583 12.0966 7.2583C9.8697 7.2583 8.06439 9.0636 8.06439 11.2906C8.06439 13.5175 9.8697 15.3228 12.0966 15.3228Z" fill="#FCFCFC" fill-opacity="0.96"/>
<path d="M49.8387 34.3549L42.8226 33.3066L39.6774 26.9356C39.4793 26.5265 39.17 26.1816 38.7849 25.9402C38.3998 25.6988 37.9545 25.5708 37.5 25.5708C37.0455 25.5708 36.6002 25.6988 36.2151 25.9402C35.83 26.1816 35.5207 26.5265 35.3226 26.9356L32.1774 33.3066L25.1613 34.3549C24.7149 34.4171 24.2947 34.6028 23.9481 34.891C23.6016 35.1792 23.3424 35.5585 23.1999 35.9861C23.0574 36.4137 23.0371 36.8726 23.1414 37.3111C23.2458 37.7496 23.4705 38.1502 23.7903 38.4678L28.871 43.4678L27.6613 50.484C27.5726 50.9363 27.615 51.4046 27.7836 51.8337C27.9521 52.2628 28.2397 52.6348 28.6125 52.9059C28.9853 53.1771 29.4278 53.336 29.8879 53.3642C30.3481 53.3923 30.8066 53.2883 31.2097 53.0646L37.5 49.6775L43.7903 52.984C44.1934 53.2077 44.652 53.3116 45.1121 53.2835C45.5722 53.2554 46.0147 53.0964 46.3875 52.8253C46.7603 52.5541 47.0479 52.1821 47.2164 51.7531C47.385 51.324 47.4274 50.8557 47.3387 50.4033L46.129 43.3872L51.2097 38.4678C51.5295 38.1502 51.7542 37.7496 51.8586 37.3111C51.9629 36.8726 51.9426 36.4137 51.8001 35.9861C51.6576 35.5585 51.3984 35.1792 51.0519 34.891C50.7053 34.6028 50.2851 34.4171 49.8387 34.3549ZM41.7742 40.8872C41.4824 41.1617 41.2633 41.5043 41.1367 41.8844C41.01 42.2644 40.9796 42.67 41.0484 43.0646L41.6129 46.5324L38.5484 44.9195C38.2004 44.7358 37.8128 44.6399 37.4194 44.6399C37.0259 44.6399 36.6383 44.7358 36.2903 44.9195L33.2258 46.5324L33.7903 43.0646C33.8591 42.67 33.8287 42.2644 33.7021 41.8844C33.5754 41.5043 33.3563 41.1617 33.0645 40.8872L30.5645 38.4678L34.0323 37.984C34.4231 37.9361 34.7963 37.7935 35.1196 37.5686C35.4428 37.3438 35.7063 37.0434 35.8871 36.6936L37.5 33.4678L39.0323 36.613C39.2131 36.9628 39.4766 37.2631 39.7998 37.488C40.123 37.7129 40.4963 37.8554 40.8871 37.9033L44.3548 38.3872L41.7742 40.8872Z" fill="#FCFCFC" fill-opacity="0.96"/>
</svg>
