<svg width="24" height="17" viewBox="0 0 24 17" fill="none" xmlns="http://www.w3.org/2000/svg">
<path d="M19.9385 0H4.06154C2.98435 0 1.95128 0.427911 1.1896 1.1896C0.427911 1.95128 0 2.98435 0 4.06154V12.5538C0 13.631 0.427911 14.6641 1.1896 15.4258C1.95128 16.1875 2.98435 16.6154 4.06154 16.6154H19.9385C21.0156 16.6154 22.0487 16.1875 22.8104 15.4258C23.5721 14.6641 24 13.631 24 12.5538V4.06154C24 2.98435 23.5721 1.95128 22.8104 1.1896C22.0487 0.427911 21.0156 0 19.9385 0ZM13.0154 10.1538L9.41539 12V4.61539L13.0154 6.46154L16.6154 8.30769L13.0154 10.1538Z" fill="white"/>
</svg>
